# xmcd CD database file
#
# Track frame offsets:
#	150
#	17867
#	38587
#	57550
#	79825
#	98302
#	113017
#	133210
#	151155
#	173252
#	190907
#	195607
#
# Disc length: 2803 seconds
#
# Revision: 0
# Processed by: cddbd v1.4b41PL3 Copyright (c) Steve Scherf et al.
# Submitted via: CdAid 2001.05.15.01
#
DISCID=8c0af10c
DTITLE=Kathy Mattea - The Innocent Years
DYEAR=1900
DGENRE=
TTITLE0=The Innocent Years
TTITLE1=Trouble With Angels
TTITLE2=Why Cant We
TTITLE3=Prove That By Me
TTITLE4=Callin' My Name
TTITLE5=Out Of The Blue
TTITLE6=I Have Always Loved You
TTITLE7=(Love Is) My Last Word
TTITLE8=Trust Me
TTITLE9=That's The Deal
TTITLE10=The Innocent Years (Reprise)
TTITLE11=B.FD
EXTD=
EXTT0=
EXTT1=
EXTT2=
EXTT3=
EXTT4=
EXTT5=
EXTT6=
EXTT7=
EXTT8=
EXTT9=
EXTT10=
EXTT11=
PLAYORDER=
